<?xml version="1.0" encoding="UTF-8" standalone="no"?>
<!DOCTYPE svg PUBLIC "-//W3C//DTD SVG 1.1//EN" "http://www.w3.org/Graphics/SVG/1.1/DTD/svg11.dtd">
<svg width="100%" height="100%" viewBox="0 0 500 200" version="1.1" xmlns="http://www.w3.org/2000/svg" style="fill-rule:evenodd;clip-rule:evenodd;stroke-linejoin:round;stroke-miterlimit:2;margin-bottom:3rem;">
    <g transform="matrix(1,0,0,1,-9.96049,-0.242095)">
        <g transform="matrix(1,0,0,1,12.8752,-20.7885)">
            <path d="M304.315,71.673C288.505,55.863 265.898,37.932 243.539,37.932C197.011,37.932 159.235,75.707 159.235,122.236C159.235,154.651 177.569,182.081 204.424,195.739C205.375,196.223 207.171,195.291 208.143,195.739C219.122,200.808 230.573,205.023 243.539,205.023C245.663,205.023 248.086,203.343 250.42,202.854C252.124,202.497 253.7,203.438 255.478,202.854C276.905,195.817 302.544,173.29 304.315,159.707C304.315,159.707 299.601,161.542 289.555,151.186C282.787,144.211 284.976,133.553 284.976,133.553C284.976,133.553 270.847,121.445 272.938,110.791C273.667,107.073 282.471,95.933 282.471,95.933C282.471,95.933 281.754,82.069 284.976,78.662C290.275,73.058 304.315,71.673 304.315,71.673Z" style="fill:rgb(232,201,136);"/>
        </g>
        <g transform="matrix(1,0,0,1,13.3436,-20.7458)">
            <g>
                <path d="M304.315,71.673C301.195,68.562 296.991,63.401 292.151,58.936C288.265,55.351 283.8,52.42 280.435,49.809C277.566,47.583 278.091,49.111 275.21,47.259C273.369,46.075 272.457,45.11 270.592,44.146C268.623,43.128 266.323,42.868 264.343,42.128C261.103,40.917 259.461,39.972 256.086,39.688C252.296,39.369 247.744,37.967 243.539,37.932C241.237,37.913 238.443,36.725 235.847,36.654C233.332,36.584 231.013,37.647 228.787,37.932C226.823,38.183 225.98,39.265 224.049,39.688C219.376,40.713 214.835,42.483 210.5,44.146C209.212,44.64 208.124,44.656 206.872,45.219C203.288,46.832 200.208,49.254 196.893,51.301C194.865,52.553 192.699,53.344 190.789,54.745C189.233,55.888 188.222,57.693 186.754,58.936C184.855,60.542 183.445,62.674 181.408,64.361C179.924,65.59 177.75,66.335 176.565,67.682C174.722,69.776 173.783,72.709 172.208,74.973C170.6,77.283 167.855,79.096 166.502,81.53C165.032,84.176 164.859,88.167 163.82,90.998C161.741,96.665 159.39,102.715 158.018,108.496C157.025,112.683 158.704,117.283 159.235,122.236C159.719,126.743 160.463,131.247 161.501,135.485C167.663,160.642 183.277,180.619 205.352,191.203C206.397,191.704 207.883,190.744 208.957,191.203C219.396,195.659 230.776,199.532 243.539,199.509C243.863,199.508 244.188,199.502 244.514,199.492C246.379,199.433 247.848,197.728 249.773,197.371C251.714,197.011 254.111,197.998 256.086,197.371C275.459,191.22 295.812,173.065 304.315,159.707C304.315,159.707 299.601,161.542 289.555,151.186C282.787,144.211 284.976,133.553 284.976,133.553C284.976,133.553 270.847,121.445 272.938,110.791C273.667,107.073 282.471,95.933 282.471,95.933C282.471,95.933 281.754,82.069 284.976,78.662C290.275,73.058 304.315,71.673 304.315,71.673Z" style="fill:rgb(239,211,149);"/>
            </g>
        </g>
        <g transform="matrix(2.08264,0,0,1.69521,-240.609,-39.5821)">
            <path d="M225.962,56.936C228.863,53.366 231.77,58.297 229.682,61.441C228.307,63.512 226.511,63.967 225.962,65.945C224.9,69.774 220.717,65.271 222.242,61.441C222.524,60.733 224.428,58.824 225.962,56.936Z" style="fill:rgb(125,87,5);"/>
        </g>
        <g transform="matrix(1.28102,0,0,1.04803,58.7034,84.682)">
            <path d="M225.962,56.936C228.863,53.366 231.77,58.297 229.682,61.441C228.307,63.512 226.511,63.967 225.962,65.945C224.9,69.774 220.717,65.271 222.242,61.441C222.524,60.733 224.428,58.824 225.962,56.936Z" style="fill:rgb(239,211,149);"/>
        </g>
        <g transform="matrix(5.18245,0,0,3.44329,-899.179,-129.502)">
            <path d="M225.962,56.936C228.863,53.366 231.77,58.297 229.682,61.441C228.307,63.512 226.511,63.967 225.962,65.945C224.9,69.774 220.717,65.271 222.242,61.441C222.524,60.733 224.428,58.824 225.962,56.936Z" style="fill:rgb(226,196,131);"/>
        </g>
        <path d="M220.556,102.414C223.821,102.533 224.356,106.824 226.476,109.546C231.441,115.921 227.809,118.145 220.556,115.796C217.448,114.79 216.529,112.43 214.636,109.546C212.602,106.445 213.024,102.139 220.556,102.414Z" style="fill:rgb(125,87,5);"/>
        <g transform="matrix(2.58127,0,0,3.14208,-424.628,-394.956)">
            <path d="M260.887,133.189C262.919,133.189 264.33,135.506 265.645,136.652C266.302,137.225 266.38,138.167 266.38,139.034C266.38,139.902 265.37,140.642 265.645,141.417C266.451,143.684 262.919,143.801 260.887,143.801C259.146,143.801 258.869,142.515 257.863,141.417C257.116,140.603 255.394,140.155 255.394,139.034C255.394,136.403 257.855,133.189 260.887,133.189Z" style="fill:rgb(237,202,127);"/>
        </g>
        <g transform="matrix(1.47028,0,0,1.68053,-110.221,-101.142)">
            <path d="M260.887,133.189C262.919,133.189 264.33,135.506 265.645,136.652C266.302,137.225 266.38,138.167 266.38,139.034C266.38,139.902 265.37,140.642 265.645,141.417C266.451,143.684 262.919,143.801 260.887,143.801C259.146,143.801 258.869,142.515 257.863,141.417C257.116,140.603 255.394,140.155 255.394,139.034C255.394,136.403 257.855,133.189 260.887,133.189Z" style="fill:rgb(125,87,5);"/>
        </g>
        <g transform="matrix(1.1912,0,0,1.17288,-70.3212,-4.65122)">
            <path d="M287.473,46.456C289.592,46.325 293.32,43.631 294.528,43.804C296.93,44.147 295.492,47.991 294.528,51.009C293.315,54.805 290.441,58.691 287.473,55.563C285.785,53.784 283.202,53.517 283.031,51.009C282.82,47.918 284.93,46.614 287.473,46.456Z" style="fill:rgb(125,87,5);"/>
        </g>
        <g transform="matrix(2.03977,0,0,2.02996,-275.884,-68.9732)">
            <path d="M261.448,71.936C263.496,72.867 265.525,72.983 265.525,75.319C265.525,76.359 266.126,77.277 265.525,78.014C264.777,78.932 262.696,78.014 261.448,78.014C259.197,78.014 257.848,77.605 257.37,75.319C256.609,71.675 258.387,70.543 261.448,71.936Z" style="fill:rgb(125,87,5);"/>
        </g>
        <g transform="matrix(0.539752,0.895547,-1.18605,0.71484,261.262,-206.872)">
            <path d="M261.448,71.936C263.496,72.867 265.525,72.983 265.525,75.319C265.525,76.359 266.126,77.277 265.525,78.014C264.777,78.932 262.696,78.014 261.448,78.014C259.197,78.014 257.848,77.605 257.37,75.319C256.609,71.675 258.387,70.543 261.448,71.936Z" style="fill:rgb(239,211,149);"/>
        </g>
        <g transform="matrix(3.96118,0,0,5.57553,-792.946,-264.214)">
            <path d="M261.448,71.936C263.496,72.867 265.525,72.983 265.525,75.319C265.525,76.359 266.126,77.277 265.525,78.014C264.777,78.932 262.696,78.014 261.448,78.014C259.197,78.014 257.848,77.605 257.37,75.319C256.609,71.675 258.387,70.543 261.448,71.936Z" style="fill:rgb(230,200,134);"/>
        </g>
        <g transform="matrix(2.32515,3.20696,-4.51394,3.27275,-69.7779,-996.856)">
            <path d="M261.448,71.936C263.496,72.867 265.525,72.983 265.525,75.319C265.525,76.359 266.126,77.277 265.525,78.014C264.777,78.932 262.696,78.014 261.448,78.014C259.197,78.014 257.848,77.605 257.37,75.319C256.609,71.675 258.387,70.543 261.448,71.936Z" style="fill:rgb(227,198,136);"/>
        </g>
        <g transform="matrix(1,0,0,1,3.7948,19.7408)">
            <path d="M186.266,85.363C188.196,85.363 193.739,92.085 193.739,94.266C193.739,96.447 188.196,97.231 186.266,97.231C184.336,97.231 182.77,96.447 182.77,94.266C182.77,92.085 184.336,85.363 186.266,85.363Z" style="fill:rgb(125,87,5);"/>
        </g>
        <path d="M212.373,138.687C216.039,138.352 216.874,146.235 217.675,149.198C220.313,158.946 217.515,156.836 212.373,154.766C209.658,153.673 207.07,152.271 207.07,149.198C207.07,147.469 205.89,142.143 207.07,141.148C207.988,140.374 211.098,138.804 212.373,138.687Z" style="fill:rgb(125,87,5);"/>
        <g transform="matrix(1,0,0,1,-12.9355,-10.7607)">
            <path d="M271.711,162.723C277.848,163.502 281.444,173.891 276.761,175.562C274.16,176.491 274.498,175.562 271.711,175.562C268.925,175.562 263.258,178.324 263.258,175.562C263.258,174.257 259.269,170.316 260.096,167.579C261.019,164.524 270.254,162.537 271.711,162.723Z" style="fill:rgb(125,87,5);"/>
        </g>
        <g transform="matrix(1,0,0,1,-13.8875,-0.828538)">
            <path d="M257.02,27.646C260.631,27.646 267.067,31.259 265.083,34.445C263.639,36.763 259.094,42.145 257.02,43.671C254.111,45.812 250.477,38.197 250.477,34.445C250.477,30.692 253.409,27.646 257.02,27.646Z" style="fill:rgb(125,87,5);"/>
        </g>
        <g transform="matrix(0.646747,0,0,0.658995,84.0843,101.16)">
            <path d="M257.02,27.646C260.631,27.646 267.067,31.259 265.083,34.445C263.639,36.763 259.094,42.145 257.02,43.671C254.111,45.812 250.477,38.197 250.477,34.445C250.477,30.692 253.409,27.646 257.02,27.646Z" style="fill:rgb(125,87,5);"/>
        </g>
        <g transform="matrix(1.26037,0,0,1.34333,-74.5885,19.2324)">
            <path d="M219.303,38.531C223.229,35.582 223.251,37.879 223.43,42.584C223.512,44.75 222.272,46.651 219.303,46.637C217.025,46.626 215.176,44.821 215.176,42.584C215.176,40.347 217.482,39.899 219.303,38.531Z" style="fill:rgb(125,87,5);"/>
        </g>
        <g transform="matrix(1.31103,0,0,1.34333,52.6411,52.0232)">
            <path d="M219.303,38.531C223.229,35.582 223.251,37.879 223.43,42.584C223.512,44.75 222.272,46.651 219.303,46.637C217.025,46.626 215.176,44.821 215.176,42.584C215.176,40.347 217.482,39.899 219.303,38.531Z" style="fill:rgb(239,211,149);"/>
        </g>
    </g>
    <g transform="matrix(21.5931,0,0,21.5931,-1314.67,-1260.95)">
        <text x="61.676px" y="66.578px" style="font-family:'ModestyRegularByMCT', 'Modesty';font-size:12px;">4</text>
    </g>
    <g transform="matrix(21.5931,0,0,21.5931,-974.051,-1262.07)">
        <text x="61.676px" y="66.578px" style="font-family:'ModestyRegularByMCT', 'Modesty';font-size:12px;">4</text>
    </g>
</svg>
